<?xml version="1.0" encoding="UTF-8"?>
<svg width="100%" height="100%" viewBox="0 0 100 100" version="1.1" xmlns="http://www.w3.org/2000/svg">
    <g>
        <rect x="15" y="15" width="70" height="70" fill="#000000"/>
        <path d="M25,75h30v-5H25V75z" fill="#FFFFFF"/>
        <path d="M25,35l5,22.5L35,35h7.5l5,22.5L52.5,35H60l-10,40h-5l-5-22.5L35,75h-5L20,35H25z" fill="#FFFFFF"/>
        <path d="M65,35v15h7.5c5,0,7.5-2.5,7.5-7.5c0-5-2.5-7.5-7.5-7.5H65z M65,55v20h-7.5V35h15c10,0,15,5,15,15c0,10-5,15-15,15h-7.5z" fill="#FFFFFF"/>
    </g>
</svg> 